<svg width="36" height="36" viewBox="0 0 36 36" fill="none" xmlns="http://www.w3.org/2000/svg">
<path d="M17.9995 16.8367C20.3707 16.8367 22.2929 14.9145 22.2929 12.5434C22.2929 10.1722 20.3707 8.25 17.9995 8.25C15.6284 8.25 13.7062 10.1722 13.7062 12.5434C13.7062 14.9145 15.6284 16.8367 17.9995 16.8367Z" stroke="white" stroke-width="2"/>
<path d="M22.2934 18.5542H22.5956C23.2234 18.5544 23.8294 18.7838 24.3 19.1993C24.7705 19.6148 25.0732 20.1879 25.151 20.8108L25.4867 23.4933C25.5169 23.7349 25.4954 23.9802 25.4235 24.2129C25.3517 24.4456 25.2312 24.6604 25.07 24.8429C24.9088 25.0255 24.7106 25.1717 24.4886 25.2718C24.2666 25.3719 24.0258 25.4236 23.7823 25.4236H12.2177C11.9742 25.4236 11.7334 25.3719 11.5114 25.2718C11.2894 25.1717 11.0912 25.0255 10.93 24.8429C10.7688 24.6604 10.6483 24.4456 10.5765 24.2129C10.5046 23.9802 10.4831 23.7349 10.5133 23.4933L10.8481 20.8108C10.926 20.1876 11.2289 19.6143 11.6998 19.1987C12.1707 18.7832 12.7772 18.554 13.4053 18.5542H13.7066" stroke="white" stroke-width="2" stroke-linecap="round" stroke-linejoin="round"/>
<circle cx="18" cy="18" r="17" stroke="white" stroke-width="2"/>
</svg>
