<svg width="36" height="36" viewBox="0 0 36 36" fill="none" xmlns="http://www.w3.org/2000/svg">
<g clip-path="url(#clip0_2726_7)">
<path d="M29.5227 0.579152C26.0609 -0.666478 22.0385 0.0970816 19.2646 2.871C16.4907 5.64489 15.7271 9.66726 16.9727 13.1291L0 30.1019L5.89812 36L22.8709 19.0272C26.3328 20.2728 30.3551 19.5092 33.129 16.7353C35.9029 13.9614 36.6665 9.93906 35.4209 6.47721L29.4523 12.4458L25.201 10.799L23.5541 6.54771L29.5227 0.579152ZM7.0854 28.9146C7.76229 29.5915 7.76229 30.6889 7.0854 31.3658C6.40854 32.0426 5.31111 32.0426 4.63425 31.3658C3.95736 30.6889 3.95736 29.5914 4.63425 28.9146C5.31111 28.2377 6.40854 28.2377 7.0854 28.9146Z" fill="white"/>
</g>
<defs>
<clipPath id="clip0_2726_7">
<rect width="36" height="36" fill="white"/>
</clipPath>
</defs>
</svg>

